<?xml version="1.0" encoding="utf-8"?>
<!-- Generator: Adobe Illustrator 27.5.0, SVG Export Plug-In . SVG Version: 6.00 Build 0)  -->
<svg version="1.1" xmlns="http://www.w3.org/2000/svg" xmlns:xlink="http://www.w3.org/1999/xlink" x="0px" y="0px"
	 viewBox="0 0 750 500" style="enable-background:new 0 0 750 500;" xml:space="preserve">
<g id="Background_Simple">
	<g>
		<path style="fill:#92E3A9;" d="M700.429,122.261c-18.449-25.758-42.274-45.956-69.06-59.566
			c-36.858-18.727-95.138-44.171-138.447-43.395c-68.309,1.224-222.05,85.122-302.366,101.083
			C110.24,136.344-7.871,195.929,16.696,317.228c24.567,121.299,89.765,157.476,214.491,141.515
			c124.726-15.96,169.136-31.921,270.24-11.704c101.104,20.216,217.326,6.384,229.609-138.323
			C740.029,202.769,726.737,158.991,700.429,122.261z"/>
		<path style="opacity:0.7;fill:#FFFFFF;" d="M700.429,122.261c-18.449-25.758-42.274-45.956-69.06-59.566
			c-36.858-18.727-95.138-44.171-138.447-43.395c-68.309,1.224-222.05,85.122-302.366,101.083
			C110.24,136.344-7.871,195.929,16.696,317.228c24.567,121.299,89.765,157.476,214.491,141.515
			c124.726-15.96,169.136-31.921,270.24-11.704c101.104,20.216,217.326,6.384,229.609-138.323
			C740.029,202.769,726.737,158.991,700.429,122.261z"/>
	</g>
</g>
<g id="Floor">
	
		<line style="fill:none;stroke:#263238;stroke-linecap:round;stroke-linejoin:round;stroke-miterlimit:10;" x1="12.118" y1="430.615" x2="741.221" y2="430.615"/>
</g>
<g id="Gate">
	<g>
		
			<rect x="355.112" y="74.193" style="fill:none;stroke:#263238;stroke-linecap:round;stroke-linejoin:round;stroke-miterlimit:10;" width="379.326" height="356.422"/>
		
			<rect x="355.293" y="69.466" style="fill:none;stroke:#263238;stroke-linecap:round;stroke-linejoin:round;stroke-miterlimit:10;" width="379.145" height="11.574"/>
		<g>
			
				<line style="fill:none;stroke:#263238;stroke-linecap:round;stroke-linejoin:round;stroke-miterlimit:10;" x1="355.827" y1="102.555" x2="733.65" y2="102.555"/>
			
				<line style="fill:none;stroke:#263238;stroke-linecap:round;stroke-linejoin:round;stroke-miterlimit:10;" x1="355.827" y1="125.28" x2="733.65" y2="125.28"/>
			
				<line style="fill:none;stroke:#263238;stroke-linecap:round;stroke-linejoin:round;stroke-miterlimit:10;" x1="355.827" y1="148.004" x2="733.65" y2="148.004"/>
			
				<line style="fill:none;stroke:#263238;stroke-linecap:round;stroke-linejoin:round;stroke-miterlimit:10;" x1="355.827" y1="170.729" x2="733.65" y2="170.729"/>
			
				<line style="fill:none;stroke:#263238;stroke-linecap:round;stroke-linejoin:round;stroke-miterlimit:10;" x1="355.827" y1="193.454" x2="733.65" y2="193.454"/>
			
				<line style="fill:none;stroke:#263238;stroke-linecap:round;stroke-linejoin:round;stroke-miterlimit:10;" x1="355.827" y1="216.178" x2="733.65" y2="216.178"/>
			
				<line style="fill:none;stroke:#263238;stroke-linecap:round;stroke-linejoin:round;stroke-miterlimit:10;" x1="355.827" y1="238.903" x2="733.65" y2="238.903"/>
			
				<line style="fill:none;stroke:#263238;stroke-linecap:round;stroke-linejoin:round;stroke-miterlimit:10;" x1="355.827" y1="261.627" x2="733.65" y2="261.627"/>
			
				<line style="fill:none;stroke:#263238;stroke-linecap:round;stroke-linejoin:round;stroke-miterlimit:10;" x1="355.827" y1="284.352" x2="733.65" y2="284.352"/>
			
				<line style="fill:none;stroke:#263238;stroke-linecap:round;stroke-linejoin:round;stroke-miterlimit:10;" x1="355.827" y1="307.076" x2="733.65" y2="307.076"/>
			
				<line style="fill:none;stroke:#263238;stroke-linecap:round;stroke-linejoin:round;stroke-miterlimit:10;" x1="355.827" y1="329.801" x2="733.65" y2="329.801"/>
			
				<line style="fill:none;stroke:#263238;stroke-linecap:round;stroke-linejoin:round;stroke-miterlimit:10;" x1="355.827" y1="352.525" x2="733.65" y2="352.525"/>
			
				<line style="fill:none;stroke:#263238;stroke-linecap:round;stroke-linejoin:round;stroke-miterlimit:10;" x1="355.827" y1="375.25" x2="733.65" y2="375.25"/>
			
				<line style="fill:none;stroke:#263238;stroke-linecap:round;stroke-linejoin:round;stroke-miterlimit:10;" x1="355.827" y1="397.975" x2="733.65" y2="397.975"/>
			
				<line style="fill:none;stroke:#263238;stroke-linecap:round;stroke-linejoin:round;stroke-miterlimit:10;" x1="355.827" y1="420.699" x2="733.65" y2="420.699"/>
		</g>
		<g>
			
				<line style="fill:none;stroke:#263238;stroke-linecap:round;stroke-linejoin:round;stroke-miterlimit:10;" x1="355.827" y1="91.174" x2="733.65" y2="91.174"/>
			
				<line style="fill:none;stroke:#263238;stroke-linecap:round;stroke-linejoin:round;stroke-miterlimit:10;" x1="355.827" y1="113.898" x2="733.65" y2="113.898"/>
			
				<line style="fill:none;stroke:#263238;stroke-linecap:round;stroke-linejoin:round;stroke-miterlimit:10;" x1="355.827" y1="136.623" x2="733.65" y2="136.623"/>
			
				<line style="fill:none;stroke:#263238;stroke-linecap:round;stroke-linejoin:round;stroke-miterlimit:10;" x1="355.827" y1="159.347" x2="733.65" y2="159.347"/>
			
				<line style="fill:none;stroke:#263238;stroke-linecap:round;stroke-linejoin:round;stroke-miterlimit:10;" x1="355.827" y1="182.072" x2="733.65" y2="182.072"/>
			
				<line style="fill:none;stroke:#263238;stroke-linecap:round;stroke-linejoin:round;stroke-miterlimit:10;" x1="355.827" y1="204.796" x2="733.65" y2="204.796"/>
			
				<line style="fill:none;stroke:#263238;stroke-linecap:round;stroke-linejoin:round;stroke-miterlimit:10;" x1="355.827" y1="227.521" x2="733.65" y2="227.521"/>
			
				<line style="fill:none;stroke:#263238;stroke-linecap:round;stroke-linejoin:round;stroke-miterlimit:10;" x1="355.827" y1="250.245" x2="733.65" y2="250.245"/>
			
				<line style="fill:none;stroke:#263238;stroke-linecap:round;stroke-linejoin:round;stroke-miterlimit:10;" x1="355.827" y1="272.97" x2="733.65" y2="272.97"/>
			
				<line style="fill:none;stroke:#263238;stroke-linecap:round;stroke-linejoin:round;stroke-miterlimit:10;" x1="355.827" y1="295.695" x2="733.65" y2="295.695"/>
			
				<line style="fill:none;stroke:#263238;stroke-linecap:round;stroke-linejoin:round;stroke-miterlimit:10;" x1="355.827" y1="318.419" x2="733.65" y2="318.419"/>
			
				<line style="fill:none;stroke:#263238;stroke-linecap:round;stroke-linejoin:round;stroke-miterlimit:10;" x1="355.827" y1="341.144" x2="733.65" y2="341.144"/>
			
				<line style="fill:none;stroke:#263238;stroke-linecap:round;stroke-linejoin:round;stroke-miterlimit:10;" x1="355.827" y1="363.868" x2="733.65" y2="363.868"/>
			
				<line style="fill:none;stroke:#263238;stroke-linecap:round;stroke-linejoin:round;stroke-miterlimit:10;" x1="355.827" y1="386.593" x2="733.65" y2="386.593"/>
			
				<line style="fill:none;stroke:#263238;stroke-linecap:round;stroke-linejoin:round;stroke-miterlimit:10;" x1="355.827" y1="409.318" x2="733.65" y2="409.318"/>
		</g>
	</g>
</g>
<g id="Lamps">
	<g>
		<polygon style="fill:#263238;stroke:#263238;stroke-linecap:round;stroke-linejoin:round;stroke-miterlimit:10;" points="
			137.551,98.876 70.118,98.876 97.091,79.704 110.578,79.704 		"/>
		
			<line style="fill:none;stroke:#263238;stroke-linecap:round;stroke-linejoin:round;stroke-miterlimit:10;" x1="103.835" y1="84.993" x2="103.835" y2="18.221"/>
	</g>
	<g>
		<polygon style="fill:#263238;stroke:#263238;stroke-linecap:round;stroke-linejoin:round;stroke-miterlimit:10;" points="
			404.64,98.876 337.207,98.876 364.18,79.704 377.667,79.704 		"/>
		
			<line style="fill:none;stroke:#263238;stroke-linecap:round;stroke-linejoin:round;stroke-miterlimit:10;" x1="370.923" y1="84.993" x2="370.923" y2="18.221"/>
	</g>
	<g>
		<polygon style="fill:#263238;stroke:#263238;stroke-linecap:round;stroke-linejoin:round;stroke-miterlimit:10;" points="
			671.729,98.876 604.295,98.876 631.269,79.704 644.755,79.704 		"/>
		
			<line style="fill:none;stroke:#263238;stroke-linecap:round;stroke-linejoin:round;stroke-miterlimit:10;" x1="638.012" y1="84.993" x2="638.012" y2="18.221"/>
	</g>
</g>
<g id="Cabinet">
	<g>
		<g>
			<polygon style="fill:#FFFFFF;stroke:#263238;stroke-linecap:round;stroke-linejoin:round;stroke-miterlimit:10;" points="
				25.866,416.519 25.866,428.527 31.12,428.527 39.375,418.395 			"/>
			<path style="fill:#263238;stroke:#263238;stroke-linecap:round;stroke-linejoin:round;stroke-miterlimit:10;" d="M34.872,430.028
				c0-3.316-2.688-6.004-6.004-6.004c-3.316,0-6.004,2.688-6.004,6.004c0,3.316,2.688,6.004,6.004,6.004
				C32.184,436.031,34.872,433.343,34.872,430.028z"/>
			<path style="fill:#FFFFFF;stroke:#263238;stroke-linecap:round;stroke-linejoin:round;stroke-miterlimit:10;" d="M31.33,430.028
				c0-1.36-1.102-2.462-2.462-2.462c-1.36,0-2.462,1.102-2.462,2.462c0,1.359,1.102,2.462,2.462,2.462
				C30.228,432.489,31.33,431.387,31.33,430.028z"/>
		</g>
		<g>
			<polygon style="fill:#FFFFFF;stroke:#263238;stroke-linecap:round;stroke-linejoin:round;stroke-miterlimit:10;" points="
				41.635,416.519 41.635,428.527 46.888,428.527 55.143,418.395 			"/>
			<path style="fill:#263238;stroke:#263238;stroke-linecap:round;stroke-linejoin:round;stroke-miterlimit:10;" d="M50.64,430.028
				c0-3.316-2.688-6.004-6.004-6.004s-6.004,2.688-6.004,6.004c0,3.316,2.688,6.004,6.004,6.004S50.64,433.343,50.64,430.028z"/>
			<path style="fill:#FFFFFF;stroke:#263238;stroke-linecap:round;stroke-linejoin:round;stroke-miterlimit:10;" d="M47.098,430.028
				c0-1.36-1.102-2.462-2.462-2.462s-2.462,1.102-2.462,2.462c0,1.359,1.102,2.462,2.462,2.462S47.098,431.387,47.098,430.028z"/>
		</g>
		<g>
			<polygon style="fill:#FFFFFF;stroke:#263238;stroke-linecap:round;stroke-linejoin:round;stroke-miterlimit:10;" points="
				108.269,416.519 108.269,428.527 103.016,428.527 94.76,418.395 			"/>
			<path style="fill:#263238;stroke:#263238;stroke-linecap:round;stroke-linejoin:round;stroke-miterlimit:10;" d="M99.263,430.028
				c0-3.316,2.688-6.004,6.004-6.004c3.316,0,6.004,2.688,6.004,6.004c0,3.316-2.688,6.004-6.004,6.004
				C101.951,436.031,99.263,433.343,99.263,430.028z"/>
			<path style="fill:#FFFFFF;stroke:#263238;stroke-linecap:round;stroke-linejoin:round;stroke-miterlimit:10;" d="
				M102.805,430.028c0-1.36,1.102-2.462,2.462-2.462c1.36,0,2.462,1.102,2.462,2.462c0,1.359-1.102,2.462-2.462,2.462
				C103.908,432.489,102.805,431.387,102.805,430.028z"/>
		</g>
		<g>
			<polygon style="fill:#FFFFFF;stroke:#263238;stroke-linecap:round;stroke-linejoin:round;stroke-miterlimit:10;" points="
				123.348,416.519 123.348,428.527 118.094,428.527 109.839,418.395 			"/>
			<path style="fill:#263238;stroke:#263238;stroke-linecap:round;stroke-linejoin:round;stroke-miterlimit:10;" d="
				M114.342,430.028c0-3.316,2.688-6.004,6.004-6.004c3.316,0,6.004,2.688,6.004,6.004c0,3.316-2.688,6.004-6.004,6.004
				C117.03,436.031,114.342,433.343,114.342,430.028z"/>
			<path style="fill:#FFFFFF;stroke:#263238;stroke-linecap:round;stroke-linejoin:round;stroke-miterlimit:10;" d="
				M117.884,430.028c0-1.36,1.102-2.462,2.462-2.462c1.359,0,2.462,1.102,2.462,2.462c0,1.359-1.102,2.462-2.462,2.462
				C118.986,432.489,117.884,431.387,117.884,430.028z"/>
		</g>
		
			<rect x="19.713" y="286.819" style="fill:#FFFFFF;stroke:#263238;stroke-linecap:round;stroke-linejoin:round;stroke-miterlimit:10;" width="107.023" height="133.653"/>
		
			<rect x="113.512" y="286.819" style="fill:#FFFFFF;stroke:#263238;stroke-linecap:round;stroke-linejoin:round;stroke-miterlimit:10;" width="13.224" height="133.653"/>
		
			<rect x="31.146" y="299.265" style="fill:#FFFFFF;stroke:#263238;stroke-linecap:round;stroke-linejoin:round;stroke-miterlimit:10;" width="72.312" height="6.825"/>
		
			<rect x="31.146" y="322.774" style="fill:#FFFFFF;stroke:#263238;stroke-linecap:round;stroke-linejoin:round;stroke-miterlimit:10;" width="72.312" height="6.825"/>
		
			<rect x="31.146" y="346.283" style="fill:#FFFFFF;stroke:#263238;stroke-linecap:round;stroke-linejoin:round;stroke-miterlimit:10;" width="72.312" height="6.825"/>
		
			<rect x="31.146" y="369.792" style="fill:#FFFFFF;stroke:#263238;stroke-linecap:round;stroke-linejoin:round;stroke-miterlimit:10;" width="72.312" height="6.825"/>
		
			<rect x="31.146" y="393.301" style="fill:#FFFFFF;stroke:#263238;stroke-linecap:round;stroke-linejoin:round;stroke-miterlimit:10;" width="72.312" height="6.825"/>
	</g>
</g>
<g id="Tires_1">
	<g>
		<g>
			
				<ellipse transform="matrix(0.9736 -0.2285 0.2285 0.9736 -51.1155 62.7877)" style="fill:#263238;stroke:#263238;stroke-linecap:round;stroke-linejoin:round;stroke-miterlimit:10;" cx="245.65" cy="252.184" rx="43.653" ry="43.653"/>
			
				<ellipse transform="matrix(0.9951 -0.0985 0.0985 0.9951 -23.6541 25.4331)" style="fill:#FFFFFF;stroke:#263238;stroke-linecap:round;stroke-linejoin:round;stroke-miterlimit:10;" cx="245.65" cy="252.184" rx="27.075" ry="27.075"/>
			
				<ellipse transform="matrix(0.0709 -0.9975 0.9975 0.0709 -23.3134 479.3398)" style="fill:#FFFFFF;stroke:#263238;stroke-linecap:round;stroke-linejoin:round;stroke-miterlimit:10;" cx="245.65" cy="252.184" rx="15.977" ry="15.976"/>
			<path style="fill:#263238;stroke:#263238;stroke-linecap:round;stroke-linejoin:round;stroke-miterlimit:10;" d="
				M248.777,246.099c0-1.296-1.051-2.346-2.347-2.346s-2.347,1.05-2.347,2.346c0,1.296,1.051,2.347,2.347,2.347
				S248.777,247.395,248.777,246.099z"/>
			<path style="fill:#263238;stroke:#263238;stroke-linecap:round;stroke-linejoin:round;stroke-miterlimit:10;" d="
				M240.819,252.497c0-1.296-1.051-2.347-2.346-2.347s-2.347,1.051-2.347,2.347c0,1.296,1.051,2.346,2.347,2.346
				S240.819,253.792,240.819,252.497z"/>
			<path style="fill:#263238;stroke:#263238;stroke-linecap:round;stroke-linejoin:round;stroke-miterlimit:10;" d="M254.52,254.645
				c0-1.296-1.05-2.347-2.347-2.347c-1.296,0-2.347,1.05-2.347,2.347c0,1.296,1.051,2.346,2.347,2.346
				C253.47,256.992,254.52,255.941,254.52,254.645z"/>
			<path style="fill:#263238;stroke:#263238;stroke-linecap:round;stroke-linejoin:round;stroke-miterlimit:10;" d="M246.88,259.788
				c0-1.296-1.051-2.346-2.347-2.346c-1.296,0-2.347,1.05-2.347,2.346c0,1.296,1.051,2.347,2.347,2.347
				C245.83,262.135,246.88,261.085,246.88,259.788z"/>
		</g>
		<path style="fill:#263238;stroke:#263238;stroke-linecap:round;stroke-linejoin:round;stroke-miterlimit:10;" d="M336.582,208.531
			c-24.109,0-43.653,19.544-43.653,43.654c0,24.109,19.544,43.653,43.653,43.653c24.109,0,43.654-19.544,43.654-43.653
			C380.235,228.075,360.691,208.531,336.582,208.531z M336.582,276.777c-13.582,0-24.592-11.011-24.592-24.592
			c0-13.582,11.01-24.592,24.592-24.592c13.582,0,24.593,11.01,24.593,24.592C361.174,265.766,350.164,276.777,336.582,276.777z"/>
		
			<rect x="196.124" y="294.491" style="fill:#FFFFFF;stroke:#263238;stroke-linecap:round;stroke-linejoin:round;stroke-miterlimit:10;" width="193.913" height="6.148"/>
		<g>
			
				<ellipse transform="matrix(0.9736 -0.2285 0.2285 0.9736 -73.4604 65.3743)" style="fill:#263238;stroke:#263238;stroke-linecap:round;stroke-linejoin:round;stroke-miterlimit:10;" cx="245.65" cy="349.995" rx="43.653" ry="43.653"/>
			
				<ellipse transform="matrix(0.9951 -0.0985 0.0985 0.9951 -33.2922 25.9091)" style="fill:#FFFFFF;stroke:#263238;stroke-linecap:round;stroke-linejoin:round;stroke-miterlimit:10;" cx="245.65" cy="349.995" rx="27.075" ry="27.075"/>
			
				<ellipse transform="matrix(0.0709 -0.9975 0.9975 0.0709 -120.8781 570.2169)" style="fill:#FFFFFF;stroke:#263238;stroke-linecap:round;stroke-linejoin:round;stroke-miterlimit:10;" cx="245.65" cy="349.995" rx="15.977" ry="15.976"/>
			<path style="fill:#263238;stroke:#263238;stroke-linecap:round;stroke-linejoin:round;stroke-miterlimit:10;" d="
				M248.777,343.909c0-1.296-1.051-2.346-2.347-2.346s-2.347,1.051-2.347,2.346c0,1.296,1.051,2.347,2.347,2.347
				S248.777,345.206,248.777,343.909z"/>
			<path style="fill:#263238;stroke:#263238;stroke-linecap:round;stroke-linejoin:round;stroke-miterlimit:10;" d="
				M240.819,350.307c0-1.296-1.051-2.346-2.346-2.346s-2.347,1.051-2.347,2.346c0,1.296,1.051,2.347,2.347,2.347
				S240.819,351.603,240.819,350.307z"/>
			<path style="fill:#263238;stroke:#263238;stroke-linecap:round;stroke-linejoin:round;stroke-miterlimit:10;" d="M254.52,352.456
				c0-1.296-1.05-2.347-2.347-2.347c-1.296,0-2.347,1.05-2.347,2.347c0,1.296,1.051,2.346,2.347,2.346
				C253.47,354.802,254.52,353.752,254.52,352.456z"/>
			<path style="fill:#263238;stroke:#263238;stroke-linecap:round;stroke-linejoin:round;stroke-miterlimit:10;" d="M246.88,357.599
				c0-1.296-1.051-2.346-2.347-2.346c-1.296,0-2.347,1.05-2.347,2.346c0,1.296,1.051,2.347,2.347,2.347
				C245.83,359.946,246.88,358.895,246.88,357.599z"/>
		</g>
		<path style="fill:#263238;stroke:#263238;stroke-linecap:round;stroke-linejoin:round;stroke-miterlimit:10;" d="M336.582,306.342
			c-24.109,0-43.653,19.544-43.653,43.653c0,24.109,19.544,43.653,43.653,43.653c24.109,0,43.654-19.544,43.654-43.653
			C380.235,325.886,360.691,306.342,336.582,306.342z M336.582,374.588c-13.582,0-24.592-11.011-24.592-24.592
			c0-13.582,11.01-24.592,24.592-24.592c13.582,0,24.593,11.01,24.593,24.592C361.174,363.577,350.164,374.588,336.582,374.588z"/>
		
			<rect x="196.124" y="392.301" style="fill:#FFFFFF;stroke:#263238;stroke-linecap:round;stroke-linejoin:round;stroke-miterlimit:10;" width="193.913" height="6.148"/>
		
			<rect x="196.124" y="198.669" style="fill:#FFFFFF;stroke:#263238;stroke-linecap:round;stroke-linejoin:round;stroke-miterlimit:10;" width="5.465" height="232.944"/>
		
			<rect x="222.766" y="198.669" style="fill:#FFFFFF;stroke:#263238;stroke-linecap:round;stroke-linejoin:round;stroke-miterlimit:10;" width="5.465" height="232.944"/>
		
			<rect x="249.408" y="198.669" style="fill:#FFFFFF;stroke:#263238;stroke-linecap:round;stroke-linejoin:round;stroke-miterlimit:10;" width="5.465" height="232.944"/>
		
			<rect x="276.049" y="198.669" style="fill:#FFFFFF;stroke:#263238;stroke-linecap:round;stroke-linejoin:round;stroke-miterlimit:10;" width="5.465" height="232.944"/>
		
			<rect x="302.691" y="198.669" style="fill:#FFFFFF;stroke:#263238;stroke-linecap:round;stroke-linejoin:round;stroke-miterlimit:10;" width="5.465" height="232.944"/>
		
			<rect x="329.332" y="198.669" style="fill:#FFFFFF;stroke:#263238;stroke-linecap:round;stroke-linejoin:round;stroke-miterlimit:10;" width="5.465" height="232.944"/>
		
			<rect x="355.974" y="198.669" style="fill:#FFFFFF;stroke:#263238;stroke-linecap:round;stroke-linejoin:round;stroke-miterlimit:10;" width="5.465" height="232.944"/>
		
			<rect x="384.502" y="198.669" style="fill:#FFFFFF;stroke:#263238;stroke-linecap:round;stroke-linejoin:round;stroke-miterlimit:10;" width="5.465" height="232.944"/>
		
			<rect x="196.124" y="198.669" style="fill:#FFFFFF;stroke:#263238;stroke-linecap:round;stroke-linejoin:round;stroke-miterlimit:10;" width="193.913" height="6.148"/>
		
			<rect x="196.124" y="429.883" style="fill:#FFFFFF;stroke:#263238;stroke-linecap:round;stroke-linejoin:round;stroke-miterlimit:10;" width="193.913" height="6.148"/>
	</g>
</g>
<g id="Tires_2">
	<g>
		<g>
			<path style="fill:#263238;stroke:#263238;stroke-linecap:round;stroke-linejoin:round;stroke-miterlimit:10;" d="
				M712.779,402.306H611.6c-2.98,0-5.396,2.416-5.396,5.396v22.935c0,2.98,2.416,5.396,5.396,5.396h101.178
				c2.98,0,5.396-2.416,5.396-5.396v-22.935C718.174,404.721,715.758,402.306,712.779,402.306z"/>
			
				<line style="fill:none;stroke:#696969;stroke-linecap:round;stroke-linejoin:round;stroke-miterlimit:10;" x1="614.404" y1="410.702" x2="710.265" y2="410.702"/>
			
				<line style="fill:none;stroke:#696969;stroke-linecap:round;stroke-linejoin:round;stroke-miterlimit:10;" x1="614.404" y1="418.635" x2="710.265" y2="418.635"/>
			
				<line style="fill:none;stroke:#696969;stroke-linecap:round;stroke-linejoin:round;stroke-miterlimit:10;" x1="614.404" y1="426.568" x2="710.265" y2="426.568"/>
		</g>
		<g>
			<path style="fill:#263238;stroke:#263238;stroke-linecap:round;stroke-linejoin:round;stroke-miterlimit:10;" d="
				M712.779,368.703H611.6c-2.98,0-5.396,2.416-5.396,5.396v22.935c0,2.98,2.416,5.396,5.396,5.396h101.178
				c2.98,0,5.396-2.416,5.396-5.396v-22.935C718.174,371.119,715.758,368.703,712.779,368.703z"/>
			
				<line style="fill:none;stroke:#696969;stroke-linecap:round;stroke-linejoin:round;stroke-miterlimit:10;" x1="614.404" y1="377.1" x2="710.265" y2="377.1"/>
			
				<line style="fill:none;stroke:#696969;stroke-linecap:round;stroke-linejoin:round;stroke-miterlimit:10;" x1="614.404" y1="385.033" x2="710.265" y2="385.033"/>
			
				<line style="fill:none;stroke:#696969;stroke-linecap:round;stroke-linejoin:round;stroke-miterlimit:10;" x1="614.404" y1="392.965" x2="710.265" y2="392.965"/>
		</g>
		<g>
			<path style="fill:#263238;stroke:#263238;stroke-linecap:round;stroke-linejoin:round;stroke-miterlimit:10;" d="
				M708.664,335.101H607.486c-2.98,0-5.396,2.416-5.396,5.396v22.935c0,2.98,2.416,5.396,5.396,5.396h101.178
				c2.98,0,5.396-2.416,5.396-5.396v-22.935C714.06,337.517,711.644,335.101,708.664,335.101z"/>
			
				<line style="fill:none;stroke:#696969;stroke-linecap:round;stroke-linejoin:round;stroke-miterlimit:10;" x1="610.29" y1="343.497" x2="706.15" y2="343.497"/>
			
				<line style="fill:none;stroke:#696969;stroke-linecap:round;stroke-linejoin:round;stroke-miterlimit:10;" x1="610.29" y1="351.43" x2="706.15" y2="351.43"/>
			
				<line style="fill:none;stroke:#696969;stroke-linecap:round;stroke-linejoin:round;stroke-miterlimit:10;" x1="610.29" y1="359.363" x2="706.15" y2="359.363"/>
		</g>
		<g>
			<path style="fill:#263238;stroke:#263238;stroke-linecap:round;stroke-linejoin:round;stroke-miterlimit:10;" d="
				M715.151,301.238H613.973c-2.98,0-5.396,2.416-5.396,5.396v22.934c0,2.98,2.416,5.396,5.396,5.396h101.178
				c2.98,0,5.396-2.416,5.396-5.396v-22.934C720.547,303.654,718.131,301.238,715.151,301.238z"/>
			
				<line style="fill:none;stroke:#696969;stroke-linecap:round;stroke-linejoin:round;stroke-miterlimit:10;" x1="616.777" y1="309.635" x2="712.638" y2="309.635"/>
			
				<line style="fill:none;stroke:#696969;stroke-linecap:round;stroke-linejoin:round;stroke-miterlimit:10;" x1="616.777" y1="317.568" x2="712.638" y2="317.568"/>
			
				<line style="fill:none;stroke:#696969;stroke-linecap:round;stroke-linejoin:round;stroke-miterlimit:10;" x1="616.777" y1="325.5" x2="712.638" y2="325.5"/>
		</g>
		<g>
			<path style="fill:#263238;stroke:#263238;stroke-linecap:round;stroke-linejoin:round;stroke-miterlimit:10;" d="
				M712.928,267.154H611.75c-2.98,0-5.396,2.416-5.396,5.396v22.935c0,2.98,2.416,5.396,5.396,5.396h101.178
				c2.98,0,5.396-2.416,5.396-5.396v-22.935C718.324,269.57,715.908,267.154,712.928,267.154z"/>
			
				<line style="fill:none;stroke:#696969;stroke-linecap:round;stroke-linejoin:round;stroke-miterlimit:10;" x1="614.554" y1="275.551" x2="710.415" y2="275.551"/>
			
				<line style="fill:none;stroke:#696969;stroke-linecap:round;stroke-linejoin:round;stroke-miterlimit:10;" x1="614.554" y1="283.483" x2="710.415" y2="283.483"/>
			
				<line style="fill:none;stroke:#696969;stroke-linecap:round;stroke-linejoin:round;stroke-miterlimit:10;" x1="614.554" y1="291.416" x2="710.415" y2="291.416"/>
		</g>
		
			<rect x="669.64" y="274.167" style="fill:#FFFFFF;stroke:#263238;stroke-linecap:round;stroke-linejoin:round;stroke-miterlimit:10;" width="24.081" height="7.039"/>
		
			<rect x="684.274" y="347.708" style="fill:#FFFFFF;stroke:#263238;stroke-linecap:round;stroke-linejoin:round;stroke-miterlimit:10;" width="24.081" height="7.039"/>
		
			<rect x="684.274" y="412.913" style="fill:#FFFFFF;stroke:#263238;stroke-linecap:round;stroke-linejoin:round;stroke-miterlimit:10;" width="24.081" height="7.039"/>
		
			<rect x="644.11" y="381.51" style="fill:#FFFFFF;stroke:#263238;stroke-linecap:round;stroke-linejoin:round;stroke-miterlimit:10;" width="38.462" height="8.346"/>
		
			<rect x="613.512" y="309.548" style="fill:#FFFFFF;stroke:#263238;stroke-linecap:round;stroke-linejoin:round;stroke-miterlimit:10;" width="28.984" height="12.861"/>
	</g>
	<g>
		<g>
			<path style="fill:#263238;stroke:#263238;stroke-linecap:round;stroke-linejoin:round;stroke-miterlimit:10;" d="
				M583.978,402.306H482.8c-2.98,0-5.396,2.416-5.396,5.396v22.935c0,2.98,2.416,5.396,5.396,5.396h101.178
				c2.98,0,5.396-2.416,5.396-5.396v-22.935C589.374,404.721,586.958,402.306,583.978,402.306z"/>
			
				<line style="fill:none;stroke:#696969;stroke-linecap:round;stroke-linejoin:round;stroke-miterlimit:10;" x1="485.604" y1="410.702" x2="581.465" y2="410.702"/>
			
				<line style="fill:none;stroke:#696969;stroke-linecap:round;stroke-linejoin:round;stroke-miterlimit:10;" x1="485.604" y1="418.635" x2="581.465" y2="418.635"/>
			
				<line style="fill:none;stroke:#696969;stroke-linecap:round;stroke-linejoin:round;stroke-miterlimit:10;" x1="485.604" y1="426.568" x2="581.465" y2="426.568"/>
		</g>
		<g>
			<path style="fill:#263238;stroke:#263238;stroke-linecap:round;stroke-linejoin:round;stroke-miterlimit:10;" d="
				M583.978,368.703H482.8c-2.98,0-5.396,2.416-5.396,5.396v22.935c0,2.98,2.416,5.396,5.396,5.396h101.178
				c2.98,0,5.396-2.416,5.396-5.396v-22.935C589.374,371.119,586.958,368.703,583.978,368.703z"/>
			
				<line style="fill:none;stroke:#696969;stroke-linecap:round;stroke-linejoin:round;stroke-miterlimit:10;" x1="485.604" y1="377.1" x2="581.465" y2="377.1"/>
			
				<line style="fill:none;stroke:#696969;stroke-linecap:round;stroke-linejoin:round;stroke-miterlimit:10;" x1="485.604" y1="385.033" x2="581.465" y2="385.033"/>
			
				<line style="fill:none;stroke:#696969;stroke-linecap:round;stroke-linejoin:round;stroke-miterlimit:10;" x1="485.604" y1="392.965" x2="581.465" y2="392.965"/>
		</g>
		<g>
			<path style="fill:#263238;stroke:#263238;stroke-linecap:round;stroke-linejoin:round;stroke-miterlimit:10;" d="
				M579.864,335.101H478.685c-2.98,0-5.396,2.416-5.396,5.396v22.935c0,2.98,2.416,5.396,5.396,5.396h101.178
				c2.98,0,5.396-2.416,5.396-5.396v-22.935C585.259,337.517,582.844,335.101,579.864,335.101z"/>
			
				<line style="fill:none;stroke:#696969;stroke-linecap:round;stroke-linejoin:round;stroke-miterlimit:10;" x1="481.489" y1="343.497" x2="577.35" y2="343.497"/>
			
				<line style="fill:none;stroke:#696969;stroke-linecap:round;stroke-linejoin:round;stroke-miterlimit:10;" x1="481.489" y1="351.43" x2="577.35" y2="351.43"/>
			
				<line style="fill:none;stroke:#696969;stroke-linecap:round;stroke-linejoin:round;stroke-miterlimit:10;" x1="481.489" y1="359.363" x2="577.35" y2="359.363"/>
		</g>
		<g>
			<path style="fill:#263238;stroke:#263238;stroke-linecap:round;stroke-linejoin:round;stroke-miterlimit:10;" d="
				M586.351,301.238H485.173c-2.98,0-5.396,2.416-5.396,5.396v22.934c0,2.98,2.416,5.396,5.396,5.396h101.178
				c2.98,0,5.396-2.416,5.396-5.396v-22.934C591.747,303.654,589.331,301.238,586.351,301.238z"/>
			
				<line style="fill:none;stroke:#696969;stroke-linecap:round;stroke-linejoin:round;stroke-miterlimit:10;" x1="487.977" y1="309.635" x2="583.837" y2="309.635"/>
			
				<line style="fill:none;stroke:#696969;stroke-linecap:round;stroke-linejoin:round;stroke-miterlimit:10;" x1="487.977" y1="317.568" x2="583.837" y2="317.568"/>
			
				<line style="fill:none;stroke:#696969;stroke-linecap:round;stroke-linejoin:round;stroke-miterlimit:10;" x1="487.977" y1="325.5" x2="583.837" y2="325.5"/>
		</g>
		<g>
			<path style="fill:#263238;stroke:#263238;stroke-linecap:round;stroke-linejoin:round;stroke-miterlimit:10;" d="
				M584.128,267.154H482.95c-2.98,0-5.396,2.416-5.396,5.396v22.935c0,2.98,2.416,5.396,5.396,5.396h101.178
				c2.98,0,5.396-2.416,5.396-5.396v-22.935C589.524,269.57,587.108,267.154,584.128,267.154z"/>
			
				<line style="fill:none;stroke:#696969;stroke-linecap:round;stroke-linejoin:round;stroke-miterlimit:10;" x1="485.754" y1="275.551" x2="581.615" y2="275.551"/>
			
				<line style="fill:none;stroke:#696969;stroke-linecap:round;stroke-linejoin:round;stroke-miterlimit:10;" x1="485.754" y1="283.483" x2="581.615" y2="283.483"/>
			
				<line style="fill:none;stroke:#696969;stroke-linecap:round;stroke-linejoin:round;stroke-miterlimit:10;" x1="485.754" y1="291.416" x2="581.615" y2="291.416"/>
		</g>
		
			<rect x="540.84" y="274.167" style="fill:#FFFFFF;stroke:#263238;stroke-linecap:round;stroke-linejoin:round;stroke-miterlimit:10;" width="24.081" height="7.039"/>
		
			<rect x="555.474" y="347.708" style="fill:#FFFFFF;stroke:#263238;stroke-linecap:round;stroke-linejoin:round;stroke-miterlimit:10;" width="24.081" height="7.039"/>
		
			<rect x="555.474" y="412.913" style="fill:#FFFFFF;stroke:#263238;stroke-linecap:round;stroke-linejoin:round;stroke-miterlimit:10;" width="24.081" height="7.039"/>
		
			<rect x="515.31" y="381.51" style="fill:#FFFFFF;stroke:#263238;stroke-linecap:round;stroke-linejoin:round;stroke-miterlimit:10;" width="38.462" height="8.346"/>
		
			<rect x="484.711" y="309.548" style="fill:#FFFFFF;stroke:#263238;stroke-linecap:round;stroke-linejoin:round;stroke-miterlimit:10;" width="28.984" height="12.861"/>
	</g>
</g>
<g id="Character">
	<g>
		<g>
			<path style="fill:#92E3A9;stroke:#263238;stroke-linecap:round;stroke-linejoin:round;stroke-miterlimit:10;" d="M44.986,431.608
				c0,0-3.362,6.341-4.176,7.644c-0.814,1.303-0.814,3.257,1.14,5.211s8.305,3.257,12.213,2.605c3.908-0.651,6.025-2.28,6.839-4.885
				c0.814-2.605,1.82-6.351,1.82-6.351s-2.635-4.396-7.031-5.699C51.394,428.831,44.986,431.608,44.986,431.608z"/>
			<path style="fill:#FFFFFF;stroke:#263238;stroke-linecap:round;stroke-linejoin:round;stroke-miterlimit:10;" d="M41.95,444.464
				c1.954,1.954,8.305,3.257,12.213,2.605c3.908-0.651,6.025-2.28,6.839-4.885c0.47-1.505,1.004-3.387,1.371-4.711
				c-0.214,0.248-0.452,0.514-0.72,0.803c-2.117,2.28-4.885,6.351-12.05,6.025c-7.165-0.326-8.793-5.048-8.793-5.048
				C39.996,440.555,39.996,442.509,41.95,444.464z"/>
		</g>
		<g>
			<path style="fill:#92E3A9;stroke:#263238;stroke-linecap:round;stroke-linejoin:round;stroke-miterlimit:10;" d="
				M138.626,428.793c0,0,5.75,3.506,7.704,4.32c1.954,0.814,7.328,2.117,8.305,3.745c0.977,1.628,0.977,5.699,0,7.002
				c-0.977,1.303-7.816,2.931-12.539,2.931c-4.722,0-11.073-4.397-14.493-6.351l-2.931,1.954c0,0-6.351-0.488-7.979-3.257
				c-1.628-2.768,0.326-7.165,0.326-7.165S132.062,425.287,138.626,428.793z"/>
			<path style="fill:#FFFFFF;stroke:#263238;stroke-linecap:round;stroke-linejoin:round;stroke-miterlimit:10;" d="
				M154.635,443.861c0.506-0.674,0.747-2.09,0.73-3.525c-2.722,1.482-7.732,3.799-12.291,3.688
				c-6.676-0.163-13.027-4.722-16.61-6.677c-3.1-1.691-8.631-3.136-10.066-3.495c-0.386,1.526-0.65,3.678,0.296,5.286
				c1.629,2.768,7.979,3.257,7.979,3.257l2.931-1.954c3.42,1.954,9.771,6.351,14.493,6.351
				C146.819,446.792,153.658,445.163,154.635,443.861z"/>
		</g>
		<g>
			<path style="fill:#263238;stroke:#263238;stroke-linecap:round;stroke-linejoin:round;stroke-miterlimit:10;" d="M57.543,300.739
				c0,0-6.455,16.108-6.69,22.913c-0.235,6.806-2.347,77.682-2.347,77.682s-3.755,5.163-3.286,10.091
				c0.469,4.928,1.408,16.428,1.408,16.428l-1.643,3.755c0,0,8.214-0.704,11.265,0.469c3.051,1.173,6.571,3.755,6.571,3.755
				s2.347-1.173,3.051-4.928c0.704-3.755,3.52-9.857,3.286-12.438c-0.235-2.582-1.408-2.816-0.939-6.571
				c0.469-3.755,7.458-28.74,9.336-34.607c1.878-5.867,6.469-25.877,6.469-25.877l4.566-6.469l19.525,47.709l5.632,26.755
				c0,0-1.643,5.163-1.174,5.867c0.469,0.704,4.459,8.214,4.459,8.214s7.745-1.878,11.969-3.051
				c4.224-1.173,9.622-1.643,9.622-1.643s1.643-6.806,1.643-8.918c0-2.112-3.051-7.041-3.051-8.918s-0.469-16.898-1.408-30.275
				c-0.939-13.377-15.959-53.978-15.959-53.978s0.704-4.928,0.939-5.633c0.235-0.704-0.469-3.99-0.469-3.99L57.543,300.739z"/>
			<path style="fill:none;stroke:#6E6E6E;stroke-linecap:round;stroke-linejoin:round;stroke-miterlimit:10;" d="M69.196,320.2
				c0,0,9.848,12.857,12.036,14.772"/>
			
				<line style="fill:none;stroke:#6E6E6E;stroke-linecap:round;stroke-linejoin:round;stroke-miterlimit:10;" x1="75.488" y1="333.121" x2="77.95" y2="336.34"/>
			
				<line style="fill:none;stroke:#6E6E6E;stroke-linecap:round;stroke-linejoin:round;stroke-miterlimit:10;" x1="67.281" y1="322.389" x2="73.532" y2="330.562"/>
			<path style="fill:none;stroke:#6E6E6E;stroke-linecap:round;stroke-linejoin:round;stroke-miterlimit:10;" d="M107.928,330.423
				c-4.318,2.796-10.753,6.926-11.651,7.285"/>
			<path style="fill:none;stroke:#6E6E6E;stroke-linecap:round;stroke-linejoin:round;stroke-miterlimit:10;" d="M111.87,327.86
				c0,0-0.689,0.45-1.777,1.159"/>
			
				<line style="fill:none;stroke:#6E6E6E;stroke-linecap:round;stroke-linejoin:round;stroke-miterlimit:10;" x1="109.408" y1="332.784" x2="100.654" y2="339.349"/>
			<path style="fill:none;stroke:#6E6E6E;stroke-linecap:round;stroke-linejoin:round;stroke-miterlimit:10;" d="M55.042,398.478
				c-0.998-2.366-1.877-4.784-2.533-7.155"/>
			<path style="fill:none;stroke:#6E6E6E;stroke-linecap:round;stroke-linejoin:round;stroke-miterlimit:10;" d="M66.187,418.404
				c0,0-5.25-7.378-9.516-16.31"/>
			<path style="fill:none;stroke:#6E6E6E;stroke-linecap:round;stroke-linejoin:round;stroke-miterlimit:10;" d="M64.82,425.517
				c0,0-12.857-3.83-12.31-2.188s5.471,2.462,5.471,2.462"/>
		</g>
		<g>
			<path style="fill:#FFFFFF;stroke:#263238;stroke-linecap:round;stroke-linejoin:round;stroke-miterlimit:10;" d="
				M145.038,256.908l7.413,23.097c0,0,5.775,4.711,7.902,10.485s6.382,18.539,8.51,20.515c0.863,0.801,1.29,1.572,2.78,1.076
				c1.507-0.502,3.919-2.412,3.919-2.412l1.051,19.268c0,0-2.887,0.304-7.142-1.064c-4.255-1.368-11.549-11.397-11.853-12.157
				c-0.304-0.76-25.834-29.177-25.834-29.177L145.038,256.908z"/>
			<path style="fill:none;stroke:#263238;stroke-linecap:round;stroke-linejoin:round;stroke-miterlimit:10;" d="M166.819,319.115
				c0,0,0.603,2.01,4.02,1.708"/>
			<path style="fill:none;stroke:#263238;stroke-linecap:round;stroke-linejoin:round;stroke-miterlimit:10;" d="M170.939,312.382
				c0,0-1.909,0-2.713,1.407"/>
		</g>
		<path style="fill:#92E3A9;stroke:#263238;stroke-linecap:round;stroke-linejoin:round;stroke-miterlimit:10;" d="M132.549,287.392
			l19.416-8.899l-6.927-21.584l-13.254,29.631C131.784,286.539,132.066,286.853,132.549,287.392z"/>
		
			<line style="fill:none;stroke:#263238;stroke-linecap:round;stroke-linejoin:round;stroke-miterlimit:10;" x1="131.784" y1="286.539" x2="145.309" y2="276.51"/>
		
			<line style="fill:none;stroke:#263238;stroke-linecap:round;stroke-linejoin:round;stroke-miterlimit:10;" x1="145.461" y1="270.887" x2="139.686" y2="277.422"/>
		<path style="fill:#92E3A9;stroke:#263238;stroke-linecap:round;stroke-linejoin:round;stroke-miterlimit:10;" d="M105.79,237.764
			c0,0-15.333-2.357-21.783,2.935c-6.45,5.293-11.082,18.855-11.247,25.306c-0.165,6.451-3.308,17.036-4.3,18.359
			c-0.992,1.323-7.939,11.082-8.601,11.743c-0.662,0.662-3.473,2.15-2.315,4.631c1.158,2.481,0.662,6.12,7.939,10.586
			c7.277,4.466,32.087,10.42,42.011,10.255c9.924-0.165,13.563-1.985,14.555-3.473c0.992-1.489,1.654-6.616,2.15-8.766
			s9.097-23.486,9.097-23.486l9.593-21.502c0,0,2.646-5.789,2.15-7.443c-0.496-1.654-8.932-7.774-14.886-11.247
			S108.883,237.806,105.79,237.764z"/>
		<path style="fill:#FFFFFF;stroke:#263238;stroke-linecap:round;stroke-linejoin:round;stroke-miterlimit:10;" d="M107.258,236.904
			c0,0-2.099-0.35-3.266,2.216c-1.166,2.566-4.472,6.426-3.149,21.343c0.134,1.515,0.117,2.099,0.117,2.099s6.531-0.7,9.68,0.233
			c3.149,0.933,6.998,3.266,6.998,3.266s7.814,0.117,9.214,0.7c1.399,0.583,1.399,0.583,1.399,0.583l4.665,3.499
			c0,0,0.467-13.529-0.117-19.244c-0.583-5.715-0.7-6.648-0.7-6.648S119.387,235.971,107.258,236.904z"/>
		<polygon style="fill:#FFFFFF;stroke:#263238;stroke-linecap:round;stroke-linejoin:round;stroke-miterlimit:10;" points="
			113.089,260.229 116.705,269.326 123.236,263.145 		"/>
		<g>
			<path style="fill:#FFFFFF;stroke:#263238;stroke-linecap:round;stroke-linejoin:round;stroke-miterlimit:10;" d="
				M105.096,228.515c0,0-2.312,1.85-2.312,3.931c0,2.081,1.041,4.856,3.006,5.318c1.965,0.462,1.965,0.462,1.965,0.462l2.312-7.053
				L105.096,228.515z"/>
			<path style="fill:#FFFFFF;stroke:#263238;stroke-linecap:round;stroke-linejoin:round;stroke-miterlimit:10;" d="M134.463,236.03
				l-0.578,10.059l-0.347,4.625c0,0-4.972-2.659-10.637-2.89c-5.665-0.231-12.024,1.85-12.949,1.04
				c-0.925-0.809-1.156-4.278-0.925-6.937c0.231-2.659,1.041-10.753,1.041-10.753S120.011,237.995,134.463,236.03z"/>
			<path style="fill:#263238;stroke:#263238;stroke-linecap:round;stroke-linejoin:round;stroke-miterlimit:10;" d="
				M109.374,230.365c0,0-5.203,15.955-5.203,20.464c0,4.509,3.006,10.637,14.915,13.065c11.909,2.428,15.377-3.584,16.187-6.937
				c0.809-3.353-0.231-9.249-1.387-10.868c-1.156-1.619-7.978-4.509-12.487-3.469c-4.509,1.041-10.174,3.353-10.174,3.353
				s0-6.012,0.116-9.134s0.231-5.087,0.231-5.087L109.374,230.365z"/>
			<path style="fill:#FFFFFF;stroke:#263238;stroke-linecap:round;stroke-linejoin:round;stroke-miterlimit:10;" d="
				M121.398,241.117c0,0,3.237,6.128,4.74,5.55c1.503-0.578,2.428-9.365,2.428-9.365"/>
			<path style="fill:#263238;stroke:#263238;stroke-linecap:round;stroke-linejoin:round;stroke-miterlimit:10;" d="
				M104.738,227.724c0,0,6.514,6.832,10.803,8.42c4.29,1.589,15.411,0.794,21.925,1.271c6.514,0.477,7.467,0,6.355-2.224
				c-1.112-2.224-6.99-5.402-6.99-5.402s2.383-7.149,0-11.28c-2.383-4.131-11.28-7.308-15.888-7.149
				c-4.607,0.159-12.233,1.112-13.504,3.813C106.168,217.874,104.738,227.724,104.738,227.724z"/>
			<path style="fill:none;stroke:#6E6E6E;stroke-linecap:round;stroke-linejoin:round;stroke-miterlimit:10;" d="M117.93,245.857
				c0,0,2.428,4.625,9.018,5.087"/>
			<path style="fill:none;stroke:#263238;stroke-linecap:round;stroke-linejoin:round;stroke-miterlimit:10;" d="M122.554,238.458
				c0,0-3.815,2.312-6.475,1.966"/>
			<path style="fill:none;stroke:#263238;stroke-linecap:round;stroke-linejoin:round;stroke-miterlimit:10;" d="M129.029,239.152
				c0,0,0.462,2.312,3.006,3.006"/>
		</g>
		<path style="fill:#92E3A9;stroke:#263238;stroke-linecap:round;stroke-linejoin:round;stroke-miterlimit:10;" d="M91.362,238.367
			c0,0-10.637,0.76-16.26,4.711c-5.623,3.951-5.471,9.27-4.407,17.172l0.608,5.319c0,0,4.407-1.823,10.485-0.912
			c6.078,0.912,15.044,4.711,15.044,4.711s-1.976-14.285-5.015-20.515"/>
		<path style="fill:none;stroke:#263238;stroke-linecap:round;stroke-linejoin:round;stroke-miterlimit:10;" d="M82.092,246.573
			c0,0,7.446,1.672,11.397,8.054"/>
		<path style="fill:none;stroke:#263238;stroke-linecap:round;stroke-linejoin:round;stroke-miterlimit:10;" d="M82.852,243.686
			c0,0,2.279,0.456,4.711,2.583"/>
		
			<rect x="176.725" y="314.202" style="fill:#263238;stroke:#263238;stroke-linecap:round;stroke-linejoin:round;stroke-miterlimit:10;" width="2.492" height="26.647"/>
		
			<rect x="147.323" y="311.978" style="fill:#263238;stroke:#263238;stroke-linecap:round;stroke-linejoin:round;stroke-miterlimit:10;" width="32.008" height="2.052"/>
		<g>
			<path style="fill:#FFFFFF;stroke:#263238;stroke-linecap:round;stroke-linejoin:round;stroke-miterlimit:10;" d="
				M178.074,308.262c0,0-3.316,0-3.517,1.407c-0.201,1.407,2.311,5.527,3.316,5.929c1.005,0.402,3.417,0.1,3.618-0.904
				C181.692,313.689,179.18,307.759,178.074,308.262z"/>
			<path style="fill:#FFFFFF;stroke:#263238;stroke-linecap:round;stroke-linejoin:round;stroke-miterlimit:10;" d="
				M182.195,315.698c0,0-9.346,0.302-10.351,0.704c-1.005,0.402-1.005,2.613-0.603,2.914c0.402,0.301,6.834,0.603,8.843,0.603
				c2.01,0,3.015,0,3.216-1.105C183.501,317.708,183.3,315.698,182.195,315.698z"/>
			<path style="fill:#FFFFFF;stroke:#263238;stroke-linecap:round;stroke-linejoin:round;stroke-miterlimit:10;" d="
				M182.798,319.919c0,0,0.1,3.417-0.201,3.819c-0.301,0.402-4.321,0.804-6.834,0.1c-2.512-0.703-4.422-1.105-4.522-1.909
				c-0.1-0.804,0-2.613,0-2.613s6.934,0.402,8.843,0.603C181.994,320.12,182.798,319.919,182.798,319.919z"/>
			<path style="fill:#FFFFFF;stroke:#263238;stroke-linecap:round;stroke-linejoin:round;stroke-miterlimit:10;" d="
				M181.089,327.054c0,0-1.716,1.654-4.476,1.882s-4.468-0.777-5.272-1.581c-0.804-0.804-0.502-2.311-0.502-2.311
				S174.959,328.562,181.089,327.054z"/>
			<path style="fill:#FFFFFF;stroke:#263238;stroke-linecap:round;stroke-linejoin:round;stroke-miterlimit:10;" d="
				M182.597,323.738c0,0-0.804,2.211-1.507,3.316c-0.703,1.105-4.02,1.105-4.924,0.904c-0.904-0.201-5.326-1.909-5.326-2.914
				c0-1.005,0.904-2.311,0.904-2.311s2.814,1.206,5.427,1.608C179.783,324.743,182.597,323.738,182.597,323.738z"/>
		</g>
		<g>
			<path style="fill:#FFFFFF;stroke:#263238;stroke-linecap:round;stroke-linejoin:round;stroke-miterlimit:10;" d="M71.303,265.568
				c0,0,1.976,20.363,3.799,21.579c1.823,1.216,36.167,14.588,54.099,19.147c0,0,0.304,1.672,1.824,2.735
				c1.52,1.064,4.711,1.064,4.711,1.064s-3.799,0.456-3.495,1.672c0.304,1.216-0.152,2.583,0.912,3.039s4.863,1.064,6.534,1.064
				s6.686,0,7.902,0s4.103-2.127,3.647-3.951c-0.456-1.823-0.608-6.078-2.279-7.142c-1.672-1.064-15.956-4.711-15.956-4.711
				L97.897,274.23l-1.064-4.863C96.833,269.367,83.308,261.465,71.303,265.568z"/>
			<path style="fill:none;stroke:#263238;stroke-linecap:round;stroke-linejoin:round;stroke-miterlimit:10;" d="M96.073,273.47
				c0,0-5.319-3.799-10.333-2.583"/>
			
				<line style="fill:none;stroke:#263238;stroke-linecap:round;stroke-linejoin:round;stroke-miterlimit:10;" x1="139.99" y1="308.574" x2="140.75" y2="315.564"/>
			
				<line style="fill:none;stroke:#263238;stroke-linecap:round;stroke-linejoin:round;stroke-miterlimit:10;" x1="143.941" y1="307.814" x2="144.701" y2="315.868"/>
			<path style="fill:none;stroke:#263238;stroke-linecap:round;stroke-linejoin:round;stroke-miterlimit:10;" d="M147.284,307.51
				c0,0,1.216,5.319,1.064,6.382c-0.152,1.064-0.76,1.976-0.76,1.976"/>
			
				<line style="fill:none;stroke:#263238;stroke-linecap:round;stroke-linejoin:round;stroke-miterlimit:10;" x1="135.735" y1="310.094" x2="134.368" y2="312.373"/>
		</g>
		<path style="fill:#92E3A9;stroke:#263238;stroke-linecap:round;stroke-linejoin:round;stroke-miterlimit:10;" d="M130.234,223.515
			c0,2.023-1.64,3.664-3.664,3.664c-2.023,0-3.664-1.64-3.664-3.664s1.64-3.664,3.664-3.664
			C128.594,219.851,130.234,221.492,130.234,223.515z"/>
	</g>
</g>
<g id="Car">
	<g>
		<g>
			
				<line style="fill:none;stroke:#263238;stroke-linecap:round;stroke-linejoin:round;stroke-miterlimit:10;" x1="217.395" y1="265.455" x2="198.672" y2="332.843"/>
			<path style="fill:#263238;stroke:#263238;stroke-linecap:round;stroke-linejoin:round;stroke-miterlimit:10;" d="
				M614.432,419.126c0,0,51.829-4.833,53.329-5.666c1.5-0.833,3.666-2.5,3.666-2.5l25.165,0.333l0.333-6l-21.665-0.333
				l-35.497,3.666v-3.833c0,0-1.667-24.165-19.665-38.83s-28.165-16.665-52.829-15.832c-24.665,0.833-52.163,38.497-56.162,45.83
				c-4,7.333-5.666,8.666-5.666,8.666H260.626l-0.214-7.421c-0.661-22.907-16.496-42.572-38.735-48.104h0
				c-10.129-2.52-20.786-1.877-30.539,1.842l-10.349,3.947c-22.147,8.446-35.738,31.011-32.513,54.493
				c0.927,6.752,0.829,11.182-1.474,9.575c-7.166-5-0.167,4.5,5.833,6c6,1.5,12.999,2.166,12.999,2.166h114.658l243.073-0.555
				L614.432,419.126z"/>
			<path style="fill:#92E3A9;stroke:#263238;stroke-linecap:round;stroke-linejoin:round;stroke-miterlimit:10;" d="
				M352.866,264.207c0,0-84.924,56.29-87.201,56.29c-2.278,0-3.579-0.976-5.206,0.325c-1.627,1.302-3.254,1.952-3.254,1.952
				l-90.78,10.737c0,0-32.538,6.508-39.045,8.46c-6.507,1.952-12.039,8.135-11.714,10.738c0.325,2.603,3.579,24.729,3.579,24.729
				l3.579,28.308c0,0-1.952,10.087-0.325,11.388c1.627,1.301,9.111,3.904,13.015,4.881c3.905,0.976,14.967,0.976,14.967,0.976
				s0.976-18.221,4.555-32.538c3.579-14.316,14.276-30.955,47.505-32.538c34.165-1.627,49.458,38.72,49.458,38.72l6.833,25.38
				l13.015,4.555h251.517c0,0-0.976-28.308,4.555-39.696c5.532-11.388,20.499-24.078,38.72-26.356
				c18.221-2.278,33.514,3.254,41.648,6.507c8.135,3.254,17.57,25.38,18.872,32.538c1.301,7.158,2.928,7.483,2.928,7.483
				s58.893-3.254,62.472-6.182c3.579-2.929,8.46-16.269,9.436-34.815c0.976-18.547-0.325-36.117-2.278-39.045
				c-1.952-2.928-6.182-3.254-6.182-3.254l-73.86-4.881c0,0-67.679-55.314-71.583-56.29c-1.61-0.402-3.939-0.971-6.12-1.5
				c-3.915-0.95-7.915-1.502-11.941-1.65l-38.229-1.406l-53.362,0.325C438.441,258.35,383.777,257.7,352.866,264.207z"/>
			<path style="fill:#263238;stroke:#263238;stroke-linecap:round;stroke-linejoin:round;stroke-miterlimit:10;" d="M127.38,341.972
				l126.118-12.044l22.492-2.001l-18.785-5.153l-90.781,10.737C166.425,333.513,133.887,340.02,127.38,341.972z"/>
			<polygon style="opacity:0.62;fill:#FFFFFF;" points="688.451,339.084 242.044,339.084 136.466,345.461 688.451,345.461 			"/>
			<path style="fill:#263238;stroke:#263238;stroke-linecap:round;stroke-linejoin:round;stroke-miterlimit:10;" d="M624.557,387.2
				h85.322c1.577,0,2.855-1.279,2.855-2.856v-7.629c0-1.577-1.278-2.855-2.855-2.855H618.7L624.557,387.2z"/>
			<path style="fill:#263238;stroke:#263238;stroke-linecap:round;stroke-linejoin:round;stroke-miterlimit:10;" d="
				M152.464,392.731h-39.972c-2.021,0-3.659-1.638-3.659-3.659v-6.023c0-2.021,1.638-3.659,3.659-3.659h44.497L152.464,392.731z"/>
			<g>
				
					<rect x="248.746" y="376.133" style="fill:#263238;stroke:#263238;stroke-linecap:round;stroke-linejoin:round;stroke-miterlimit:10;" width="33.839" height="6.19"/>
				
					<rect x="285.188" y="376.133" style="fill:#263238;stroke:#263238;stroke-linecap:round;stroke-linejoin:round;stroke-miterlimit:10;" width="138.936" height="6.19"/>
				<polygon style="fill:#263238;stroke:#263238;stroke-linecap:round;stroke-linejoin:round;stroke-miterlimit:10;" points="
					426.727,376.133 426.727,382.323 520.11,382.323 523.364,376.133 				"/>
			</g>
			<g>
				<path style="fill:#263238;stroke:#263238;stroke-linecap:round;stroke-linejoin:round;stroke-miterlimit:10;" d="
					M135.514,422.015c3.905,0.976,14.967,0.976,14.967,0.976s0.381-7.113,1.54-15.944h-29.428
					c-0.463,2.769-1.358,9.076-0.095,10.087C124.126,418.436,131.61,421.039,135.514,422.015z"/>
				<path style="fill:#263238;stroke:#263238;stroke-linecap:round;stroke-linejoin:round;stroke-miterlimit:10;" d="
					M523.491,412.579H256.292l2.54,9.436l13.015,4.555h251.517C523.364,426.571,523.15,420.356,523.491,412.579z"/>
			</g>
			
				<rect x="396.467" y="337.743" style="fill:#263238;stroke:#263238;stroke-linecap:round;stroke-linejoin:round;stroke-miterlimit:10;" width="22.777" height="4.23"/>
			
				<rect x="525.642" y="337.743" style="fill:#263238;stroke:#263238;stroke-linecap:round;stroke-linejoin:round;stroke-miterlimit:10;" width="22.776" height="4.23"/>
			<path style="fill:#878787;stroke:#263238;stroke-linecap:round;stroke-linejoin:round;stroke-miterlimit:10;" d="
				M284.862,322.775c6.507-2.278,68.655-50.759,69.956-55.64c0.376-1.41,0.42-2.513,0.302-3.38
				c-0.763,0.147-1.517,0.297-2.254,0.452c0,0-84.924,56.29-87.201,56.29C265.665,320.497,278.355,325.053,284.862,322.775z"/>
			<path style="fill:#878787;stroke:#263238;stroke-linecap:round;stroke-linejoin:round;stroke-miterlimit:10;" d="
				M613.494,318.871c1.301,0.325,9.111,0.325,9.111,0.325l-0.1-0.138l-2.828-0.187c0,0-67.679-55.314-71.583-56.29
				c0,0,4.555,4.555,8.135,7.484C559.807,272.992,612.192,318.545,613.494,318.871z"/>
			<path style="fill:#FFFFFF;stroke:#263238;stroke-linecap:round;stroke-linejoin:round;stroke-miterlimit:10;" d="
				M699.371,338.314c-2.232-0.165-4.175,1.511-4.34,3.743l-1.008,13.658c-0.165,2.232,1.511,4.175,3.743,4.339l2.95,0.218
				c0.529,0.039,1.04-0.032,1.516-0.183c0.224-8.087,0.032-15.685-0.433-21.597L699.371,338.314z"/>
			<g>
				
					<ellipse transform="matrix(0.4472 -0.8944 0.8944 0.4472 -257.5915 407.6107)" style="fill:#263238;stroke:#263238;stroke-linecap:round;stroke-linejoin:round;stroke-miterlimit:10;" cx="200.968" cy="412.201" rx="43.653" ry="43.654"/>
				
					<ellipse transform="matrix(0.8023 -0.5969 0.5969 0.8023 -206.3227 201.4592)" style="fill:#FFFFFF;stroke:#263238;stroke-linecap:round;stroke-linejoin:round;stroke-miterlimit:10;" cx="200.968" cy="412.201" rx="27.075" ry="27.075"/>
				<path style="fill:#FFFFFF;stroke:#263238;stroke-linecap:round;stroke-linejoin:round;stroke-miterlimit:10;" d="
					M216.944,412.201c0-8.824-7.153-15.977-15.976-15.977c-8.824,0-15.977,7.153-15.977,15.977c0,8.823,7.153,15.977,15.977,15.977
					C209.792,428.178,216.944,421.025,216.944,412.201z"/>
				<path style="fill:#263238;stroke:#263238;stroke-linecap:round;stroke-linejoin:round;stroke-miterlimit:10;" d="
					M204.095,406.115c0-1.296-1.05-2.346-2.347-2.346c-1.296,0-2.346,1.05-2.346,2.346c0,1.296,1.051,2.347,2.346,2.347
					C203.044,408.462,204.095,407.411,204.095,406.115z"/>
				<path style="fill:#263238;stroke:#263238;stroke-linecap:round;stroke-linejoin:round;stroke-miterlimit:10;" d="
					M196.137,412.513c0-1.296-1.05-2.347-2.347-2.347c-1.296,0-2.346,1.051-2.346,2.347c0,1.296,1.05,2.346,2.346,2.346
					C195.086,414.86,196.137,413.809,196.137,412.513z"/>
				<path style="fill:#263238;stroke:#263238;stroke-linecap:round;stroke-linejoin:round;stroke-miterlimit:10;" d="
					M209.838,414.662c0-1.296-1.05-2.347-2.346-2.347c-1.296,0-2.347,1.051-2.347,2.347c0,1.296,1.051,2.347,2.347,2.347
					C208.788,417.009,209.838,415.958,209.838,414.662z"/>
				<path style="fill:#263238;stroke:#263238;stroke-linecap:round;stroke-linejoin:round;stroke-miterlimit:10;" d="
					M202.198,419.805c0-1.296-1.05-2.346-2.347-2.346c-1.296,0-2.346,1.05-2.346,2.346c0,1.296,1.051,2.347,2.346,2.347
					C201.148,422.152,202.198,421.101,202.198,419.805z"/>
			</g>
			<g>
				
					<ellipse transform="matrix(0.9576 -0.2882 0.2882 0.9576 -94.4073 183.0753)" style="fill:#263238;stroke:#263238;stroke-linecap:round;stroke-linejoin:round;stroke-miterlimit:10;" cx="574.629" cy="412.201" rx="43.653" ry="43.654"/>
				
					<ellipse transform="matrix(0.1615 -0.9869 0.9869 0.1615 75.0146 912.6948)" style="fill:#FFFFFF;stroke:#263238;stroke-linecap:round;stroke-linejoin:round;stroke-miterlimit:10;" cx="574.629" cy="412.201" rx="27.075" ry="27.075"/>
				
					<circle style="fill:#FFFFFF;stroke:#263238;stroke-linecap:round;stroke-linejoin:round;stroke-miterlimit:10;" cx="574.629" cy="412.201" r="15.977"/>
				<path style="fill:#263238;stroke:#263238;stroke-linecap:round;stroke-linejoin:round;stroke-miterlimit:10;" d="
					M577.756,406.115c0-1.296-1.051-2.346-2.347-2.346c-1.296,0-2.347,1.05-2.347,2.346c0,1.296,1.051,2.347,2.347,2.347
					C576.705,408.462,577.756,407.411,577.756,406.115z"/>
				<path style="fill:#263238;stroke:#263238;stroke-linecap:round;stroke-linejoin:round;stroke-miterlimit:10;" d="
					M569.798,412.513c0-1.296-1.051-2.347-2.346-2.347s-2.347,1.051-2.347,2.347c0,1.296,1.051,2.346,2.347,2.346
					S569.798,413.809,569.798,412.513z"/>
				<path style="fill:#263238;stroke:#263238;stroke-linecap:round;stroke-linejoin:round;stroke-miterlimit:10;" d="
					M583.499,414.662c0-1.296-1.05-2.347-2.347-2.347c-1.296,0-2.346,1.051-2.346,2.347c0,1.296,1.051,2.347,2.346,2.347
					C582.449,417.009,583.499,415.958,583.499,414.662z"/>
				<path style="fill:#263238;stroke:#263238;stroke-linecap:round;stroke-linejoin:round;stroke-miterlimit:10;" d="
					M575.859,419.805c0-1.296-1.051-2.346-2.347-2.346s-2.346,1.05-2.346,2.346c0,1.296,1.051,2.347,2.346,2.347
					S575.859,421.101,575.859,419.805z"/>
			</g>
			<path style="fill:#5C5C5C;stroke:#263238;stroke-linecap:round;stroke-linejoin:round;stroke-miterlimit:10;" d="
				M366.241,272.019c0,0-68.292,52.781-67.43,53.858c0.862,1.077,4.524,0.646,4.524,0.646l255.503-6.247c0,0,5.386-7.54,5.17-11.634
				c-0.216-4.093-6.463-10.987-6.463-10.987s-25.206-28.006-31.884-29.945c-6.679-1.939-99.745-0.646-99.745-0.646l-52.35,3.232
				C373.566,270.295,368.827,270.941,366.241,272.019z"/>
			<path style="fill:#263238;stroke:#263238;stroke-linecap:round;stroke-linejoin:round;stroke-miterlimit:10;" d="
				M418.221,323.714l24.304-0.594l10.007-56.338c-8.13,0.066-15.187,0.142-19.99,0.199L418.221,323.714z"/>
			
				<line style="fill:none;stroke:#878787;stroke-linecap:round;stroke-linejoin:round;stroke-miterlimit:10;" x1="443.151" y1="269.218" x2="433.025" y2="320.06"/>
			<path style="fill:#263238;stroke:#263238;stroke-linecap:round;stroke-linejoin:round;stroke-miterlimit:10;" d="
				M520.119,267.159l5.973,39.544l-2.526,14.434l7.762-0.19L524.8,267.54C523.792,267.391,522.188,267.266,520.119,267.159z"/>
			<path style="fill:#878787;stroke:#263238;stroke-linecap:round;stroke-linejoin:round;stroke-miterlimit:10;" d="M320.57,312.735
				l-7.325,12.495c0,0,1.508,1.939,3.662,0.646c2.155-1.293,8.833-7.109,8.833-7.109L320.57,312.735z"/>
			<path style="fill:#878787;stroke:#263238;stroke-linecap:round;stroke-linejoin:round;stroke-miterlimit:10;" d="
				M328.363,320.207L328.363,320.207c-3.756,0.622-7.306-1.918-7.928-5.674l-0.564-3.4c-0.623-3.756,1.917-7.306,5.673-7.928l0,0
				L328.363,320.207z"/>
			<g>
				<path style="fill:none;stroke:#263238;stroke-linecap:round;stroke-linejoin:round;stroke-miterlimit:10;" d="M390.803,264.716
					c-10.608,0.829-20.664,1.954-24.596,3.396c-9.762,3.579-72.234,58.243-72.234,58.243"/>
				<path style="fill:none;stroke:#263238;stroke-linecap:round;stroke-linejoin:round;stroke-miterlimit:10;" d="M552.281,350.29
					c1.78-1.398,3.137-2.794,3.946-4.413c2.928-5.857,6.507-23.753,6.507-23.753s8.46-10.412,3.254-21.15
					c-5.206-10.737-25.38-29.609-30.26-32.863c-4.881-3.254-13.666-4.881-16.269-4.881c-2.603,0-95.986-0.325-95.986-0.325
					s-12.309,0.421-25.683,1.307"/>
				<path style="fill:none;stroke:#263238;stroke-linecap:round;stroke-linejoin:round;stroke-miterlimit:10;" d="M483.949,407.048
					h32.257c0,0,4.23-30.911,15.618-41.648c6.275-5.916,12.155-9.462,16.66-12.433"/>
				
					<line style="fill:none;stroke:#263238;stroke-linecap:round;stroke-linejoin:round;stroke-miterlimit:10;" x1="293.592" y1="407.048" x2="478.143" y2="407.048"/>
				<path style="fill:none;stroke:#263238;stroke-linecap:round;stroke-linejoin:round;stroke-miterlimit:10;" d="M283.442,348.135
					c-0.55,12.799,0.012,36.07,0.77,42.643c0.976,8.46,2.277,16.269,2.277,16.269h3.131"/>
				<path style="fill:none;stroke:#263238;stroke-linecap:round;stroke-linejoin:round;stroke-miterlimit:10;" d="M289.418,330.584
					c0,0-3.579,3.905-5.206,9.761"/>
				<path style="fill:none;stroke:#263238;stroke-linecap:round;stroke-linejoin:round;stroke-miterlimit:10;" d="M425.354,367.658
					c-0.422,15.494-0.579,37.438-0.579,37.438"/>
				<path style="fill:none;stroke:#263238;stroke-linecap:round;stroke-linejoin:round;stroke-miterlimit:10;" d="M432.584,325.704
					c0,0-5.532,21.475-6.508,27.657c-0.224,1.418-0.413,4.905-0.573,9.439"/>
			</g>
		</g>
		<g>
			<path style="fill:#263238;stroke:#263238;stroke-linecap:round;stroke-linejoin:round;stroke-miterlimit:10;" d="
				M172.554,209.788l87.244,112.87l17.524,5.726c0,0-0.632-4.567-3.157-7.954c-2.525-3.386-92.578-104.513-92.578-104.513
				L172.554,209.788z"/>
			<path style="fill:#92E3A9;stroke:#263238;stroke-linecap:round;stroke-linejoin:round;stroke-miterlimit:10;" d="
				M277.322,328.385L172.554,209.788c0,0,5.206,1.76,8.845,3.656c3.639,1.896,90.014,98.33,93.692,104.329
				C278.77,323.771,277.322,328.385,277.322,328.385z"/>
		</g>
	</g>
</g>
<g id="Hydraulic_Jack">
	<g>
		<polygon style="fill:#FFFFFF;stroke:#263238;stroke-linecap:round;stroke-linejoin:round;stroke-miterlimit:10;" points="
			399.775,435.831 372.172,418.961 365.117,427.243 390.267,443.498 		"/>
		<polygon style="fill:#263238;stroke:#263238;stroke-linecap:round;stroke-linejoin:round;stroke-miterlimit:10;" points="
			377.386,423.255 367.878,430.31 365.117,427.243 369.718,419.638 369.718,407.92 377.386,407.92 		"/>
		<path style="fill:#FFFFFF;stroke:#263238;stroke-linecap:round;stroke-linejoin:round;stroke-miterlimit:10;" d="M375.025,421.332
			c0,1.131-0.917,2.048-2.048,2.048c-1.131,0-2.048-0.917-2.048-2.048c0-1.131,0.917-2.048,2.048-2.048
			C374.107,419.283,375.025,420.2,375.025,421.332z"/>
		<polygon style="fill:#263238;stroke:#263238;stroke-linecap:round;stroke-linejoin:round;stroke-miterlimit:10;" points="
			372.172,418.961 365.117,427.243 386.894,440.738 383.52,442.578 361.743,428.163 370.638,416.814 		"/>
		
			<rect x="368.491" y="405.159" style="fill:#263238;stroke:#263238;stroke-linecap:round;stroke-linejoin:round;stroke-miterlimit:10;" width="10.428" height="2.454"/>
		<path style="fill:#FFFFFF;stroke:#263238;stroke-linecap:round;stroke-linejoin:round;stroke-miterlimit:10;" d="M445.69,427.797
			c-0.931,0-1.829-0.506-2.288-1.389c-0.656-1.263-0.165-2.817,1.098-3.474l70.136-35.341c1.261-0.658,2.818-0.165,3.474,1.098
			c0.656,1.263,0.165,2.817-1.097,3.474l-70.136,35.341C446.497,427.703,446.09,427.797,445.69,427.797z"/>
		<path style="fill:#263238;stroke:#263238;stroke-linecap:round;stroke-linejoin:round;stroke-miterlimit:10;" d="M518.11,388.692
			c-0.655-1.262-2.212-1.755-3.474-1.098l-14.55,7.332l2.353,4.583l14.573-7.343C518.274,391.509,518.766,389.954,518.11,388.692z"
			/>
		<g>
			<path style="fill:#FFFFFF;stroke:#263238;stroke-linecap:round;stroke-linejoin:round;stroke-miterlimit:10;" d="
				M429.809,436.156c-1.33,0-2.613-0.722-3.268-1.984c-0.937-1.803-0.235-4.025,1.568-4.962l15.882-7.255
				c1.805-0.938,4.025-0.235,4.962,1.568c0.937,1.803,0.235,4.025-1.568,4.962l-15.882,7.255
				C430.961,436.022,430.381,436.156,429.809,436.156z"/>
		</g>
		
			<rect x="408.108" y="430.453" style="fill:#263238;stroke:#263238;stroke-linecap:round;stroke-linejoin:round;stroke-miterlimit:10;" width="22.17" height="3.692"/>
		<path style="fill:#FFFFFF;stroke:#263238;stroke-linecap:round;stroke-linejoin:round;stroke-miterlimit:10;" d="M357.723,453.996
			h99.735c2.052,0,3.716-1.664,3.716-3.716v-12.982c0-2.052-1.664-3.716-3.716-3.716h-58.908L357.723,453.996z"/>
		<g>
			<path style="fill:#263238;stroke:#263238;stroke-linecap:round;stroke-linejoin:round;stroke-miterlimit:10;" d="
				M364.988,453.477c0,3.726-3.021,6.747-6.747,6.747c-3.726,0-6.747-3.021-6.747-6.747c0-3.726,3.021-6.747,6.747-6.747
				C361.968,446.73,364.988,449.751,364.988,453.477z"/>
			<path style="fill:#FFFFFF;stroke:#263238;stroke-linecap:round;stroke-linejoin:round;stroke-miterlimit:10;" d="M360.29,453.477
				c0,1.131-0.917,2.048-2.048,2.048c-1.131,0-2.048-0.917-2.048-2.048c0-1.131,0.917-2.048,2.048-2.048
				C359.373,451.429,360.29,452.346,360.29,453.477z"/>
		</g>
		<g>
			<path style="fill:#263238;stroke:#263238;stroke-linecap:round;stroke-linejoin:round;stroke-miterlimit:10;" d="
				M453.735,453.477c0,3.726-3.021,6.747-6.747,6.747c-3.726,0-6.747-3.021-6.747-6.747c0-3.726,3.021-6.747,6.747-6.747
				C450.714,446.73,453.735,449.751,453.735,453.477z"/>
			<path style="fill:#FFFFFF;stroke:#263238;stroke-linecap:round;stroke-linejoin:round;stroke-miterlimit:10;" d="
				M449.036,453.477c0,1.131-0.917,2.048-2.048,2.048c-1.131,0-2.048-0.917-2.048-2.048c0-1.131,0.917-2.048,2.048-2.048
				C448.119,451.429,449.036,452.346,449.036,453.477z"/>
		</g>
		
			<rect x="438.515" y="446.343" style="fill:#FFFFFF;stroke:#263238;stroke-linecap:round;stroke-linejoin:round;stroke-miterlimit:10;" width="16.599" height="3.927"/>
		
			<circle style="fill:#263238;stroke:#263238;stroke-linecap:round;stroke-linejoin:round;stroke-miterlimit:10;" cx="405.469" cy="436.004" r="3.46"/>
		<polygon style="fill:#263238;stroke:#263238;stroke-linecap:round;stroke-linejoin:round;stroke-miterlimit:10;" points="
			405.469,432.544 411.351,420.781 414.119,421.819 408.108,434.144 		"/>
		<polyline style="fill:none;stroke:#263238;stroke-linecap:round;stroke-linejoin:round;stroke-miterlimit:10;" points="
			442.844,441.049 430.514,441.049 430.514,448.048 386.192,448.048 399.855,441.049 		"/>
	</g>
</g>
</svg>
